<?xml version="1.0" standalone="no"?>
<!DOCTYPE svg PUBLIC "-//W3C//DTD SVG 20010904//EN"
 "http://www.w3.org/TR/2001/REC-SVG-20010904/DTD/svg10.dtd">
<svg version="1.0" xmlns="http://www.w3.org/2000/svg"
 width="67.000000pt" height="65.000000pt" viewBox="0 0 67.000000 65.000000"
 preserveAspectRatio="xMidYMid meet">

<g transform="translate(0.000000,65.000000) scale(0.100000,-0.100000)"
fill="#000000" stroke="none">
<path d="M320 525 c-5 -23 -5 -173 1 -215 5 -32 7 -15 8 58 l1 102 28 -6 c15
-4 35 -11 46 -16 13 -7 16 -7 12 1 -4 6 -24 16 -46 22 -30 9 -40 18 -43 38 -2
14 -5 22 -7 16z"/>
<path d="M245 449 c-4 -6 -5 -12 -2 -15 2 -3 7 2 10 11 7 17 1 20 -8 4z"/>
<path d="M146 434 c-16 -41 3 -154 25 -154 5 0 2 14 -7 32 -11 22 -15 48 -12
85 5 56 4 63 -6 37z"/>
<path d="M457 403 c17 -23 34 -62 38 -85 5 -26 10 -36 12 -24 7 27 -24 99 -54
127 -24 23 -24 22 4 -18z"/>
<path d="M376 406 c47 -21 74 -61 74 -113 0 -55 -23 -91 -75 -114 -28 -13 -34
-19 -19 -19 63 0 123 85 109 156 -8 46 -63 104 -96 104 -22 -1 -21 -2 7 -14z"/>
<path d="M210 360 c8 -5 20 -10 25 -10 6 0 3 5 -5 10 -8 5 -19 10 -25 10 -5 0
-3 -5 5 -10z"/>
<path d="M407 300 c3 -13 0 -20 -8 -20 -9 0 -10 -3 -3 -8 6 -4 14 -14 17 -22
3 -8 6 2 6 22 1 20 -3 39 -8 42 -5 4 -7 -3 -4 -14z"/>
<path d="M209 241 c18 -16 50 -33 70 -38 34 -8 36 -11 39 -51 3 -35 7 -42 24
-42 30 0 83 28 109 58 l24 27 -25 -21 c-31 -27 -84 -54 -105 -54 -11 0 -15 11
-15 44 0 43 -1 44 -38 50 -22 3 -56 17 -78 31 l-39 25 34 -29z"/>
<path d="M484 235 c-10 -32 -10 -35 3 -22 8 8 13 24 11 37 -2 17 -5 15 -14
-15z"/>
</g>
</svg>
